<svg xmlns="http://www.w3.org/2000/svg" xml:space="preserve" width="436.554" height="416.063"
    viewBox="0 0 115.505 110.083"><g style="display:inline"><g style="fill:currentColor"><path d="M289.875 28.908a25.48 25.48 0 0 0-8.613 1.375c-9.458 3.227-15.404 10.473-17.888 16.719-3.243 8.156-1.773 16.332-.214 20.56-3.239 3.128-9.045 9.159-11.518 11.199-3.027 2.496-2.81 2.759-5.609 4.12-2.8 1.362-2.99.722-5.75 2.421-2.593 1.597-2.756 4.956 0 8.6 4.969 6.569 11.12 9.257 17.903 11.004 2.898.746 6.204.73 8.966-.421 2.637-1.1 6.312-5.798 6.312-5.798s2.357 12.032 4.146 15.69c1.788 3.658 6.828 8.86 10.323 10.811 3.496 1.951 6.585 2.602 9.918 2.277 1.588-.155 3.49-.66 5.045-1.148 3.938 2.012 8.447 2.169 11.366 1.985 5.764 11.47 13.132 10.758 14.2 10.635.713-.082 4.232-.27 6.823-3.3 1.651-1.932 3.447-5.652 3.172-9.618-.648-9.344-5.925-16.46-8.378-19.296a63.199 63.199 0 0 0 4.151-1.283c1.155 1.481 4.86 2.052 7.345 1.683 3.309-.492 6.619-2.376 8.707-4.99 3.231-4.043 3.499-9.896 3.5-14.844 0-2.947-.05-9.42-2.948-12.625-1.904-2.105-3.593-2.164-6.383-2.693-3.55-.252-7.755-.518-11.322-.594a50.86 50.86 0 0 0-2.395.027c-.967-5.989-2.576-10.53-4.959-14.016 3.201-2.925 6.777-4.075 8.94-7.316 1.79-2.682 3.119-6.027 2.861-9.24-.224-2.81-1.526-5.849-3.752-7.575-3.924-3.044-8.518-4.166-14.574-3.085-4.234.756-9.153 3.05-13.168 5.224-.496-.558-1.364-1.497-2.014-2.006-.86-.757-2.13-1.61-3.984-2.361-2.234-.905-5.827-2.063-10.209-2.121zm33.66 5.063c3.015.04 4.8.744 4.8.744s-3.667.405-5.408.973c-4.12 1.346-8.049 3.345-11.693 5.693-1.948 1.254-4.922 3.863-6.512 5.296 0 0-3.444 2.86-5.246 4.185-1.5 1.104-3.02 2.193-4.628 3.135-.78.458-5.105 2.528-7.84 3.253-1.107.293-3.411.428-3.411.428 2.51-2.137 7.208-5.786 11.065-8.825 3.512-2.935 10.028-8.062 16.693-11.651 4.921-2.65 9.166-3.271 12.18-3.23zm-36.004.083c7.235-.367 13.33 3.62 13.996 3.952-3.963 2.378-20.05 15.373-21.892 16.864-1.292-3.078-4.761-11.345-2.273-16.864 3.356-2.719 6.88-3.785 10.169-3.952zm-15.751 8.77c-.002 7.91 3.126 13.082 4.2 14.745a867.23 867.23 0 0 0-8.547 6.414c-2.691-7.486 2.606-20.63 4.347-21.16zm38.046 5.202.187.01.02.017c-.068-.011-.138-.017-.207-.027zm-3.473 2.961c4.828-.07 8.251 1.266 12.138 3.984l1.847 1.511c-2.564-.367-3.162 1.677-3.177 2.76-.02 1.385.499 1.932 1.582 1.972 1.084.041 2.202-.586 3.626-.27.619.138 1.174.612 1.603 1.105 1.04 2.53 1.805 5.685 2.38 9.684a50.69 50.69 0 0 0-1.795.242c-.04-.79-.11-1.83-.23-3.06-.284-2.913-1.43-3.98-2.64-3.99-1.209-.01-2.037.178-2.76 1.574-1.266 2.45-.746 5.666-.477 6.888-3.986 1.317-6.825 3.283-6.852 5.91 5.11-4.215 22.165-4.282 22.739-3.776 0 0-2.985 2.332-2.986 3.994-.002 3.463 2.556 6.517 6.21 8.326.905.448 1.777.775 2.467 1.03.933 6.767-5.182 10.19-8.114 11.498-6.751 3.013-11.452 2.615-17.58 1.19-2.886-.672-7.125-3.303-10.395-5.815a74.69 74.69 0 0 1-2.893-2.343 17.122 17.122 0 0 1 5.525-.543c-1.703-2.612-5.62-3.24-10.51-1.733-1.893.835-3.334 2.095-4.313 3.697-.973 1.592-1.196 3.437-.77 5.313 2.284-2.571 4.518-4.328 4.77-4.345 1.415 1.833 1.436 4.783 2.869 8.216 1.232 2.954 2.919 5.767 4.09 7.22 2.673 3.315 4.42 4.508 6.803 6.804.956.92 1.8 3.135 2.736 5.57-3.915-1.054-7.193-2.94-8.96-4.323-2.965-2.321-5.544-6.448-6.834-8.382-1.29-1.934-6.028-6.022-6.576-6.06-.548-.039-.46.97-.355 1.542.107.573 1.278 2.171 1.879 3.278 1.002 1.847 1.868 3.766 2.877 5.609 1.317 2.406 1.098 3.747 3.503 6.724-1.873-.121-3.887-.33-4.806-.539-1.788-.406-3.984-1.626-6.747-4.552-2.764-2.927-4.472-4.472-5.772-10.568-1.3-6.097-3.252-9.755-3.252-9.755s2.52-4.065 4.553-10.893c2.032-6.829.716-16.987.27-17.73-.445-.743-.831-1.278-1.811-1.367-.98-.089-.646.549-1.165 5.093-.52 4.545-4.285 14.025-5.974 17.141-1.688 3.116-4.378 8.127-8.31 9.87-3.287 1.458-7.352.697-10.78-.39-3.546-1.126-6.1-3.117-9.347-6.104-3.246-2.987-.39-4.935 1.948-5.324 2.337-.39 6.492-2.597 9.868-5.324 3.376-2.727 7.983-8.6 12.071-12.356 2.712-2.491 6.927-5.503 10.26-7.722 0 0 4.897.292 8.006-.33s7.057-2.133 10.313-3.818c3.318-1.717 6.752-3.783 9.248-6.333zm44.03 32.967c.282 5.533.052 10.967-4.206 16.25-2.552 2.656-7.631 2.161-6.401.906 5.132-5.237 5.15-10.664 4.688-12.327a2.503 2.503 0 0 0-.19-.473c3.936-1.05 5.428-2.241 6.11-4.356zm-43.75 23.624c.217.009.471.049.764.127 2.347.63 6.295 1.802 9.231 3.2 4.702 2.72 7.89 7.42 10.087 12.276.351.81.67 1.635.954 2.471.378-3.394.023-6.977-1.764-9.956a18.562 18.562 0 0 0-6.56-6.951c2.983-.338 5.967.947 8.24 2.81 3.287 2.884 5.475 6.906 6.539 11.118.787 3.617.244 7.882-2.575 10.514-2.178 1.736-5.463 1.385-7.66-.14-2.446-1.728-4.02-4.393-5.377-7.002-1.316-2.59-2.15-5.387-3.154-8.1-1.863-3.76-5.456-6.206-8.936-8.332-1.048-.627-1.312-2.099.21-2.035z" style="baseline-shift:baseline;display:inline;overflow:visible;opacity:1;vector-effect:none;fill:currentColor;enable-background:accumulate;stop-color:#000;stop-opacity:1" transform="translate(-238.277 -28.906)"/><path d="M307.156 75.758c0 3.747-.922 6.576-3.451 6.785-2.567.213-4.33-3.654-4.589-6.217-.281-2.793.077-8.418 3.547-7.637 2.115.476 4.493 3.322 4.493 7.069z" style="display:inline;fill:currentColor;stroke-width:5.29167" transform="translate(-238.277 -28.906)"/><path d="M291.482 66.194c.745.557 1.358-.475 1.798-.96 1.103-1.389 1.634-3.232 3.12-4.306 1.884-1.48 4.443-1.838 6.758-1.476.959.245 1.888.707 2.522 1.482.465.247 1.177 1.36 1.645.733.193-.991-.408-1.899-.84-2.743-2.205-3.034-3.901-3.818-6.986-3.502-2.544.388-4.673 2.135-6.166 4.15-1.099 1.547-1.917 3.336-2.198 5.22-.048.485-.004 1.03.347 1.402z" style="display:inline;fill:currentColor;fill-opacity:1;stroke:none;stroke-width:5.29167;stroke-dasharray:none;stroke-opacity:1" transform="translate(-238.277 -28.906)"/></g></g></svg>